<?xml version="1.0" encoding="utf-8"?>
<svg viewBox="-0.982 178.781 840.417 241.158" xmlns="http://www.w3.org/2000/svg" fill="#DB5926">
  <path d="m131.23 365.08 35.03-7.12c2.57 7.72 9.3 10.09 17.41 10.09 10.29 0 15.83-5.54 15.83-16.62v-19.99h-1.98c-6.93 11.87-17.42 17.81-30.48 17.81-23.55 0-38.79-17.41-38.79-48.48s15.24-50.46 38.79-50.46c13.06 0 23.55 5.94 30.48 17.81h1.98l2.57-15.83h37.01c-.99 18.01-.99 35.82-.99 53.83v45.91c0 25.33-16.43 42.75-54.03 42.75-27.9 0-47.89-10.09-52.84-29.69Zm68.28-64.31c0-12.07-6.53-19.79-16.43-19.79s-16.23 7.72-16.23 19.79 6.33 19.79 16.23 19.79 16.43-7.72 16.43-19.79Z" class="cls-1" transform="matrix(1, 0, 0, 1, 3.552713678800501e-15, 0)"/>
  <path d="M339.94 314.77h-68.28c1.98 13.46 8.91 18.4 18.21 18.4 7.72 0 12.47-3.96 15.63-11.08l34.04 6.73c-7.72 19.39-22.96 29.88-50.46 29.88-36.02 0-54.22-22.76-54.22-52.44s18.01-52.44 53.83-52.44c33.64 0 51.85 22.56 51.85 49.08 0 3.96-.2 8.71-.59 11.87Zm-67.88-18.99h32.85c-1.98-11.68-8.31-16.43-16.23-16.43-8.51 0-14.45 5.15-16.62 16.43Z" class="cls-1" transform="matrix(1, 0, 0, 1, 3.552713678800501e-15, 0)"/>
  <path d="M414.14 253.23v38.79c-3.17-.4-4.75-.4-7.72-.4-15.24 0-27.9 7.32-27.9 30.28v34.04h-38.59v-47.1c0-18.01 0-35.82-.99-53.83h37.01l3.17 21.77h2.77c4.95-16.23 14.65-23.75 26.72-23.75 1.78 0 3.36 0 5.54.2Zm-300.92-11.17c12.47 0 22.36-8.91 22.36-20.78s-9.89-20.78-22.36-20.78-22.16 8.91-22.16 20.78 9.7 20.78 22.16 20.78Zm-19.39 29.55c2.14.09 4.32.46 6.54 1.15 3.37-2.68 3.64-2.73 5.7-.98 2.12-1.74 3.47-1.66 4.02.34.23.83.13 1.82-.08 2.67-.37 1.53-.13 2.69.93 3.96 1.4 1.67 2.54 3.58 3.58 5.5 1.06 1.96 1.81 4.08 2.78 6.09 1.05 2.17 2.42 4.05.29 6.63-1.05 1.27-1.44 2.93-3.43 3.13-.19.02-.37.41-.49.65-2.4 4.73-4.58 4.92-7.89.66-1.64-2.1-3.27-2.36-5.47-1.01-.62.38-1.48.34-2.17.62-1.29.52-3.19 0-3.69 1.95-.67 2.63.49 4.68 3.1 5.47.8.24 1.63.41 2.45.59 2.53.55 5.22.73 7.56 1.72 4.83 2.05 9.6 4.35 11.92 9.63.4.9 1.36 1.6 2.17 2.27 2.58 2.14 2.66 5.87-.08 7.68-.78.52-2.1.25-3.17.33-3.46.25-4.79-.64-6.21-3.9-.47-1.08-1.04-2.19-1.84-3.02-.49-.51-1.5-.6-2.3-.72-.38-.06-.96.49-1.21.35-2.97-1.69-5.8-.15-8.66.31-1.46.23-2.92.47-4.37.71v28.49h38.59v-100.6H93.81v19.32Z" class="cls-1" transform="matrix(1, 0, 0, 1, 3.552713678800501e-15, 0)"/>
  <path d="M73.99 273.94v38.78c0 8.31 4.35 11.48 10.49 11.48 3.17 0 10.49 2.71 13.46 1.12l4.5 27.57H73.99c-23.35 0-38.59-9.7-38.59-37.8v-33.44H16.6v-29.69h20.19m37.2 0" class="cls-1" transform="matrix(1, 0, 0, 1, 3.552713678800501e-15, 0)"/>
  <path d="M35.4 290.97c2.08-.19 4.16-.36 6.24-.53 12.19-.97 8.01.96 20.92-6.26 1.53-.85 3.15-1.55 4.63-2.47 1.06-.66 1.85-1.77 2.94-2.34 3-1.57 6.14-2.88 9.16-4.44 5.99-3.1 14.57-3.55 21.09-2.16l-2.43-20.48H74v-48.05H44.48l-7.69 48.05H16.6v29.69h18.8v9.01Zm55.39 33.81c-.89.13-1.8.1-2.77.14 1.24 3.48.58 6.47-.67 9.43-1.24 2.95-2.54 5.88-3.59 8.89-1.38 3.94-2.64 4.57-6.32 2.75-2.19-1.08-3.35-4.03-2.24-6.21 1.04-2.04 2.3-3.98 3.56-5.9.65-.99.72-1.56-.51-2.09-2.44-1.05-4.81-2.27-7.27-3.28-.58-.24-1.8-.2-2.02.15-.91 1.48-2.23 1.45-3.69 1.86-2.73.77-5.19 2.45-7.84 3.58-2.28.97-4.61 1.84-7 2.49-1.94.52-4.52 0-5.86 1.1-1.27 1.05-1.43.15-2.71.33 6.41 11.23 39.44-5.15 54.66-5.15 11.08 0 5.11 11.71 13.62 7.36l-15.56-16.04c-1.26.21-2.53.41-3.79.59Zm364.26 30.09v-91.41h-34.12v-9.36h78.31v9.36h-33.97v91.41h-10.22Zm51.1 0V254.1h38.44c18.71 0 31.24 11.23 31.24 30.23 0 15.12-8.35 25.05-21.31 28.22l22.74 42.32H565.6l-21.31-41.17h-27.93v41.17h-10.22Zm10.22-50.24h27.78c12.81 0 21.45-7.2 21.45-20.44s-8.64-20.73-21.45-20.73h-27.78v41.17Zm139.49 50.24-8.64-23.9h-49.38l-8.49 23.9H578.7l36.85-100.77h14.25l37 100.77h-10.94Zm-54.7-32.97h42.9l-21.16-58.73h-.72l-21.02 58.73Zm65.64-17.41c0-30.66 17.85-51.82 44.05-51.82 16.27 0 31.81 8.35 38.87 28.5l-9.64 3.74c-5.76-16.12-15.98-22.89-29.22-22.89-20.01 0-33.69 15.98-33.69 42.47s13.68 42.47 33.69 42.47c13.24 0 23.9-6.33 29.94-22.89l9.64 3.74c-7.49 20.44-23.32 28.5-39.59 28.5-26.2 0-44.05-21.16-44.05-51.82Zm103.64 3.16v37.86h54.85v9.36h-65.07V254.1h65.07v9.36h-54.85v34.84" class="cls-1" transform="matrix(1, 0, 0, 1, 3.552713678800501e-15, 0)"/>
  <path d="M779.56 295.05h4.02c.14 0 .24.04.33.14.72.75 1.44 1.49 2.16 2.23l1.62 1.68c.59.61 1.19 1.23 1.78 1.84.4.42.81.84 1.21 1.25.6.62 1.2 1.25 1.8 1.86.41.42.82.86 1.23 1.28.08.08.07.13 0 .2-.54.56-1.09 1.12-1.64 1.68-.61.62-1.23 1.25-1.83 1.88-.59.61-1.19 1.22-1.79 1.83-.55.56-1.09 1.12-1.64 1.68-.6.62-1.2 1.23-1.8 1.85-.41.42-.82.84-1.22 1.26-.08.09-.17.12-.28.12h-8.03c-.04 0-.11.02-.13-.03-.01-.04.04-.07.07-.1.55-.57 1.1-1.13 1.65-1.7.56-.58 1.13-1.16 1.7-1.74.58-.59 1.17-1.19 1.74-1.79.55-.58 1.11-1.15 1.67-1.72.59-.6 1.18-1.2 1.77-1.81.45-.46.9-.93 1.36-1.4q.12-.12 0-.25c-.43-.44-.87-.88-1.3-1.32-.53-.55-1.06-1.09-1.59-1.63-.61-.62-1.22-1.24-1.83-1.87-.53-.55-1.06-1.1-1.6-1.64-.62-.63-1.23-1.25-1.84-1.89-.53-.55-1.07-1.1-1.61-1.65-.06-.06-.12-.13-.18-.2-.04-.04-.03-.06.03-.07h4.17Z" class="cls-1" transform="matrix(1, 0, 0, 1, 3.552713678800501e-15, 0)"/>
  <path d="M791.26 295.05h4.01c.14 0 .24.04.34.14.54.56 1.08 1.11 1.62 1.67l1.62 1.68c.59.61 1.17 1.22 1.76 1.83.4.41.8.82 1.19 1.24.6.62 1.19 1.25 1.8 1.87.36.36.71.73 1.06 1.1.25.26.5.53.76.79.06.06.05.11 0 .16-.16.16-.32.33-.48.5-.67.68-1.34 1.37-2.01 2.05-.59.61-1.19 1.21-1.77 1.82-.56.58-1.12 1.14-1.67 1.72-.29.3-.59.6-.89.91-.57.59-1.15 1.18-1.72 1.76-.47.48-.94.96-1.4 1.44-.08.08-.16.11-.27.11h-8.11c-.02 0-.05 0-.06-.02 0-.02.01-.04.03-.05.08-.08.15-.17.23-.25.45-.46.89-.91 1.34-1.37.66-.67 1.32-1.34 1.97-2.02.53-.54 1.05-1.09 1.58-1.63.61-.62 1.23-1.25 1.83-1.88.59-.61 1.18-1.22 1.78-1.82.41-.42.81-.84 1.22-1.26.07-.07.07-.12 0-.19-.34-.34-.67-.68-1-1.02-.64-.66-1.29-1.31-1.93-1.98-.59-.61-1.18-1.21-1.77-1.82-.56-.57-1.12-1.14-1.67-1.72-.56-.58-1.12-1.15-1.68-1.72-.58-.59-1.16-1.18-1.74-1.78-.06-.06-.11-.12-.17-.18-.01-.02-.04-.03-.03-.05.01-.03.04-.02.07-.03h4.15Z" class="cls-1" transform="matrix(1, 0, 0, 1, 3.552713678800501e-15, 0)"/>
  <path d="M803 295.05h4.01c.14 0 .25.04.35.15.54.57 1.09 1.13 1.63 1.7.58.6 1.16 1.21 1.75 1.81.4.42.8.83 1.2 1.25.6.63 1.2 1.26 1.81 1.88.36.36.71.73 1.06 1.1.6.62 1.2 1.24 1.8 1.87.18.18.35.37.53.55.07.07.07.12 0 .19-.43.43-.86.87-1.28 1.3-.65.66-1.3 1.32-1.95 1.99-.52.54-1.05 1.08-1.58 1.62-.62.63-1.25 1.27-1.86 1.91-.59.61-1.18 1.22-1.78 1.82-.5.51-.99 1.02-1.48 1.53-.08.09-.17.12-.29.12h-8.01c-.04 0-.1.02-.12-.03-.03-.05.04-.08.07-.11.64-.65 1.28-1.31 1.92-1.96.6-.62 1.2-1.24 1.81-1.85.54-.55 1.08-1.1 1.61-1.66.6-.61 1.19-1.22 1.79-1.83.55-.56 1.11-1.12 1.65-1.7.34-.36.69-.7 1.03-1.05.19-.19.19-.19.01-.39-.27-.3-.56-.57-.83-.85-.58-.59-1.16-1.18-1.73-1.78-.59-.62-1.19-1.23-1.8-1.84-.55-.56-1.1-1.12-1.64-1.69-.3-.31-.61-.62-.91-.93-.57-.59-1.15-1.17-1.72-1.76-.39-.41-.79-.81-1.18-1.22-.03-.03-.09-.06-.07-.11.02-.05.08-.03.13-.03h4.09Z" class="cls-1" transform="matrix(1, 0, 0, 1, 3.552713678800501e-15, 0)"/>
</svg>